<?xml version="1.0" standalone="no"?>
<!DOCTYPE svg PUBLIC "-//W3C//DTD SVG 20010904//EN"
 "http://www.w3.org/TR/2001/REC-SVG-20010904/DTD/svg10.dtd">
<svg version="1.0" xmlns="http://www.w3.org/2000/svg"
 width="520.000000pt" height="520.000000pt" viewBox="0 0 520.000000 520.000000"
 preserveAspectRatio="xMidYMid meet">
<metadata>
Created by potrace 1.14, written by Peter Selinger 2001-2017
</metadata>
<g transform="translate(0.000000,520.000000) scale(0.100000,-0.100000)"
fill="#000000" stroke="none">
<path d="M152 3292 c-43 -3 -53 -6 -48 -18 3 -9 6 -18 6 -20 0 -2 21 -4 46 -4
54 0 103 -21 124 -52 22 -33 25 -1128 3 -1170 -19 -40 -55 -60 -115 -64 -53
-4 -75 -15 -64 -32 7 -12 754 -9 821 3 76 13 217 66 273 102 179 115 283 319
284 559 1 116 -3 145 -36 250 -62 194 -194 332 -381 395 -94 32 -120 37 -240
45 -100 6 -590 11 -673 6z m664 -97 c188 -43 293 -246 299 -575 6 -410 -126
-626 -379 -616 -94 3 -106 18 -106 132 -1 109 -1 1051 0 1065 0 13 117 10 186
-6z"/>
<path d="M4145 3290 c-49 -19 -80 -87 -64 -143 35 -127 219 -100 219 32 0 83
-80 140 -155 111z"/>
<path d="M2264 3279 c-9 -15 4 -26 35 -32 22 -5 32 -14 40 -39 15 -47 12 -859
-3 -889 -21 -42 -113 -50 -162 -15 -18 13 -19 33 -24 284 l-5 270 -30 43 c-46
65 -109 93 -215 93 -137 0 -229 -36 -293 -116 -23 -28 -30 -48 -31 -83 -1 -62
33 -96 103 -103 46 -4 53 -2 81 26 37 38 39 76 5 122 -32 43 -31 55 1 77 40
26 109 22 140 -8 21 -22 25 -34 27 -108 l2 -83 -115 -60 c-193 -100 -260 -167
-260 -262 0 -152 166 -191 318 -76 l51 39 18 -37 c34 -69 48 -72 396 -72 259
0 307 2 307 14 0 8 -14 17 -30 21 -17 4 -36 16 -42 28 -9 16 -12 150 -12 497
l-1 475 -148 1 c-81 1 -150 -2 -153 -7z m-329 -744 l0 -115 -41 -21 c-102 -55
-164 54 -87 153 30 37 102 98 118 98 7 0 11 -42 10 -115z"/>
<path d="M3314 3278 c-162 -18 -327 -99 -438 -215 -83 -86 -160 -232 -186
-348 -56 -263 49 -543 257 -687 57 -39 159 -85 220 -99 26 -6 57 -13 68 -16
11 -3 72 -6 135 -8 183 -4 297 28 424 119 97 69 111 89 112 152 0 30 -1 54 -3
54 -2 0 -36 -31 -74 -69 -114 -111 -229 -162 -369 -163 -83 0 -123 7 -187 37
-164 75 -244 273 -239 590 4 215 45 341 143 442 164 169 420 165 592 -8 36
-37 87 -131 106 -194 8 -28 18 -41 33 -43 20 -3 20 0 21 227 0 127 -4 233 -8
235 -12 8 -31 -9 -49 -45 -29 -57 -55 -59 -195 -12 -149 51 -247 65 -363 51z"/>
<path d="M4762 2960 c-22 -10 -57 -34 -79 -53 l-39 -36 0 42 0 42 -129 1 c-72
0 -135 -2 -142 -4 -15 -5 -5 -32 11 -32 7 0 21 -6 32 -14 18 -14 19 -30 21
-278 1 -267 -5 -331 -33 -342 -27 -10 -69 -7 -90 8 -18 14 -19 32 -24 338 l-5
323 -132 -1 c-73 -1 -137 -2 -143 -3 -22 -2 -8 -20 25 -31 20 -7 37 -20 41
-33 11 -32 12 -549 1 -570 -5 -10 -24 -25 -43 -33 -33 -14 -46 -34 -21 -34 70
-1 675 -2 685 -1 21 2 13 21 -12 33 -14 6 -28 18 -32 27 -4 9 -8 117 -10 241
-2 209 -1 227 18 258 38 63 98 81 134 41 18 -20 19 -39 19 -274 0 -235 -1
-254 -19 -274 -11 -12 -25 -21 -33 -21 -8 0 -13 -7 -11 -16 2 -13 19 -16 98
-16 207 0 250 2 250 12 0 5 -15 16 -34 25 -42 20 -44 28 -45 295 0 229 -5 268
-33 316 -42 71 -145 100 -226 64z"/>
<path d="M1573 2135 c-19 -13 -21 -24 -20 -100 1 -53 7 -89 15 -97 10 -10 123
-13 528 -13 603 0 554 -10 553 111 -1 124 49 114 -547 113 -430 0 -512 -2
-529 -14z"/>
<path d="M4013 2127 c-25 -29 -25 -160 1 -185 15 -15 66 -17 529 -17 601 -1
553 -10 551 113 -3 122 48 112 -549 111 l-513 0 -19 -22z"/>
</g>
</svg>
