<svg xmlns="http://www.w3.org/2000/svg" viewBox="0 0 287.54 80.4"><defs><style>.cls-1{fill:#259cd6;}</style></defs><g id="Layer_2" data-name="Layer 2"><g id="outline"><path class="cls-1" d="M0,79.17V77H2.61a10.45,10.45,0,0,0,5.26-1.08A6.53,6.53,0,0,0,10.57,73q.52-1.22.52-7.32V13.88c0-4-.21-6.54-.63-7.55A5.79,5.79,0,0,0,7.87,3.69,10.39,10.39,0,0,0,2.61,2.55H0V.4H35.26Q49.38.4,58,4.24A33.58,33.58,0,0,1,73.91,18.47,42.72,42.72,0,0,1,79.34,40a42.54,42.54,0,0,1-2.67,15.3,35.21,35.21,0,0,1-6.91,11.56A33.89,33.89,0,0,1,60,74.2a52.45,52.45,0,0,1-13.56,4.27,64.15,64.15,0,0,1-11.15.7ZM30,4.88V66.33c0,3.25.15,5.25.46,6A3.35,3.35,0,0,0,32.06,74a9.53,9.53,0,0,0,4.53.87q9.7,0,14.81-6.62,7-9,7-27.77,0-15.15-4.76-24.22-3.78-7.08-9.7-9.64Q39.72,4.82,30,4.88Z"/><path class="cls-1" d="M220.26.88V27.24h-2.18q-2.47-10.32-9.2-15.82a23.48,23.48,0,0,0-15.25-5.49A22.54,22.54,0,0,0,180.56,10a23.88,23.88,0,0,0-8.69,10.71,48.44,48.44,0,0,0-3.54,18.85,63,63,0,0,0,2.58,18.59q2.58,8.38,8.08,12.67t14.24,4.29A27.84,27.84,0,0,0,206.38,72q6-3.13,12.59-10.82v6.56a41.46,41.46,0,0,1-13.32,9.67,40.4,40.4,0,0,1-16.17,3,46.34,46.34,0,0,1-21.62-4.88,34.43,34.43,0,0,1-14.58-14A39.15,39.15,0,0,1,148.14,42a40.25,40.25,0,0,1,5.7-20.63A40,40,0,0,1,169.2,6.26,41.73,41.73,0,0,1,189.76.88a46.59,46.59,0,0,1,16.93,3.48c3.44,1.34,5.63,2,6.56,2a4.27,4.27,0,0,0,3.12-1.32A7.27,7.27,0,0,0,218.08.88Z"/><path class="cls-1" d="M105.47,53.64Q98,60.29,92,60.28A8,8,0,0,1,86.13,58a7.77,7.77,0,0,1-2.33-5.78,11.29,11.29,0,0,1,4-8.46q4.05-3.76,17.63-10V29.59q0-4.65-.5-5.87a4.78,4.78,0,0,0-1.92-2.11,5.74,5.74,0,0,0-3.16-.9A8.11,8.11,0,0,0,95.18,22,2.23,2.23,0,0,0,94,23.83a3.83,3.83,0,0,0,1.23,2.29,5.65,5.65,0,0,1,1.67,3.65,4.87,4.87,0,0,1-1.6,3.67A5.87,5.87,0,0,1,91.14,35a6.73,6.73,0,0,1-4.64-1.67,5.1,5.1,0,0,1-1.87-3.92,9.11,9.11,0,0,1,2.51-6,15.86,15.86,0,0,1,7-4.42,28.38,28.38,0,0,1,9.32-1.54q5.85,0,9.25,2.48a11.68,11.68,0,0,1,4.42,5.39q.61,1.85.62,8.49v18c0,2.91.37,4.49,1,5.36,1,1.33,4,1.58,5.63,1.58v1.58c-1.92-.11-9,0-11,0a8.33,8.33,0,0,1-5.49-1.65A7.45,7.45,0,0,1,105.47,53.64Zm0-3.21V36.67a25.67,25.67,0,0,0-7.91,6.68,8.11,8.11,0,0,0-1.72,4.8,5.08,5.08,0,0,0,1.45,3.56,4,4,0,0,0,3.08,1.18Q102.58,52.89,105.47,50.43Z"/><path class="cls-1" d="M141.64.68V51.77q0,4.35,1,5.56c.67.8,2,1.26,4,1.38v1.58h-22.2V58.71a5.36,5.36,0,0,0,4.05-1.58c.58-.68.87-2.46.87-5.36V9.21c0-2.87-.33-4.71-1-5.52s-2-1.27-3.91-1.38V.68Z"/><path class="cls-1" d="M241.15,19.74V52q0,4.32,1,5.51c.63.8,1.88,1.26,3.74,1.38v1.57h-21V58.91a5,5,0,0,0,3.83-1.57q.82-1,.83-5.32V28.23q0-4.31-1-5.51c-.64-.8-1.87-1.25-3.7-1.37V19.74ZM235.33,0a6,6,0,0,1,4.57,2,6.7,6.7,0,0,1,1.87,4.77,6.58,6.58,0,0,1-1.89,4.75,6.09,6.09,0,0,1-4.55,2,6,6,0,0,1-4.53-2,6.61,6.61,0,0,1-1.88-4.75A6.71,6.71,0,0,1,230.8,2,6,6,0,0,1,235.33,0Z"/><path class="cls-1" d="M261.43,19.74V25a23.12,23.12,0,0,1,5.74-5,11.81,11.81,0,0,1,5.9-1.54,9.13,9.13,0,0,1,6.28,2.2,10.57,10.57,0,0,1,3.32,5.47q.68,2.47.67,9.54V51.59c0,3.13.27,5.09.81,5.86s1.67,1.25,3.39,1.46v1.57H267.87V58.91A4.12,4.12,0,0,0,271,57q.68-1.1.67-5.4V33.46a30.92,30.92,0,0,0-.38-6.32,3.9,3.9,0,0,0-1.26-2,3.1,3.1,0,0,0-2-.72q-3.57,0-6.65,5.36V51.59q0,4.57.81,5.79a4.06,4.06,0,0,0,3,1.53v1.57H245.59V58.91a4.76,4.76,0,0,0,3.49-1.66q.71-1,.71-5.66v-23c0-3.08-.28-5-.82-5.75s-1.67-1.25-3.38-1.48V19.74Z"/></g><g id="Blocks"><rect class="cls-1" x="83.46" y="66.35" width="63" height="12.7" rx="3"/><rect class="cls-1" x="224.42" y="66.35" width="63" height="12.7" rx="3"/></g></g></svg>