<svg xmlns="http://www.w3.org/2000/svg" xmlns:xlink="http://www.w3.org/1999/xlink" width="484.55" height="374.92" viewBox="0 0 484.55 374.92"><defs><style>.cls-1{fill:url(#linear-gradient);}.cls-2{fill:url(#linear-gradient-2);}.cls-3{fill:url(#linear-gradient-3);}.cls-4{fill:url(#linear-gradient-4);}.cls-5{fill:#d8d8d8;}</style><linearGradient id="linear-gradient" x1="66.22" y1="57.77" x2="483.73" y2="298.82" gradientTransform="matrix(-1, 0, 0, 1, 490.29, 0)" gradientUnits="userSpaceOnUse"><stop offset="0.03" stop-color="#1185be"/><stop offset="1" stop-color="#0a4c6d"/></linearGradient><linearGradient id="linear-gradient-2" x1="437.81" y1="148.47" x2="498.39" y2="183.45" gradientTransform="matrix(0.68, 0.98, 1.14, -0.79, -464.69, -252.55)" xlink:href="#linear-gradient"/><linearGradient id="linear-gradient-3" x1="665.89" y1="207.25" x2="812.02" y2="291.62" gradientTransform="matrix(1.15, 0.31, 0.36, -1.33, -619.46, 383.06)" xlink:href="#linear-gradient"/><linearGradient id="linear-gradient-4" x1="368.61" y1="342.56" x2="397.95" y2="359.5" gradientTransform="matrix(1, 0, 0, 1, 0, 0)" xlink:href="#linear-gradient"/></defs><g id="Layer_2" data-name="Layer 2"><g id="Layer_1-2" data-name="Layer 1"><path class="cls-1" d="M4.73,213.06C-10.63,322,37.22,410.71,235.4,342.27c68.34-23.6,251.89,36.37,227.71-160.48C437.25-28.77,322.53,9.92,234.75,13.05,93.24,18.11,46.67-84.29,4.73,213.06Z"/><path class="cls-2" d="M68.87,103.15C88.34,92.91,98.25,76,67.4,55.51,56.76,48.45,48.53,15.43,18.47,41.34-13.69,69.05,4,81,13.2,93.16,28,112.77,15.72,131.1,68.87,103.15Z"/><path class="cls-3" d="M412.52,285.25c19.84-49.22,11.6-95.85-77.07-85.33-30.58,3.62-97.26-44.27-112.12,50.31-15.89,101.17,35.32,95.51,71.19,103.55C352.35,366.74,358.36,419.62,412.52,285.25Z"/><ellipse class="cls-4" cx="383.28" cy="351.03" rx="17.46" ry="15.25"/><ellipse class="cls-5" cx="429.52" cy="294.89" rx="55.03" ry="60.32"/></g></g></svg>